<!DOCTYPE svg PUBLIC "-//W3C//DTD SVG 20010904//EN" "http://www.w3.org/TR/2001/REC-SVG-20010904/DTD/svg10.dtd">
<svg version="1.0" xmlns="http://www.w3.org/2000/svg" width="347px" height="347px" viewBox="0 0 3470 3470" preserveAspectRatio="xMidYMid meet">
<g id="layer101" fill="#020202" stroke="none">
 <path d="M1459 3395 c-737 -120 -1308 -672 -1429 -1383 -27 -156 -27 -398 0 -554 103 -605 547 -1116 1140 -1312 208 -69 287 -80 555 -80 212 0 252 2 345 22 530 115 950 430 1190 894 123 238 180 475 180 753 0 197 -22 338 -78 511 -183 556 -637 972 -1224 1120 -139 35 -134 35 -378 39 -153 3 -240 0 -301 -10z"/>
 </g>
<g id="layer102" fill="#303030" stroke="none">
 <path d="M1459 3395 c-737 -120 -1308 -672 -1429 -1383 -27 -156 -27 -398 0 -554 103 -605 547 -1116 1140 -1312 208 -69 287 -80 555 -80 212 0 252 2 345 22 530 115 950 430 1190 894 123 238 180 475 180 753 0 197 -22 338 -78 511 -189 576 -673 1002 -1287 1134 -130 28 -483 37 -616 15z m264 -196 c26 -9 68 -32 92 -51 47 -36 105 -121 105 -155 0 -20 -29 -67 -155 -248 l-68 -97 -57 5 c-191 17 -337 215 -286 390 19 66 52 108 112 143 75 44 162 49 257 13z m276 -315 c12 -15 21 -33 21 -41 0 -8 -34 -64 -76 -124 -74 -108 -77 -110 -108 -103 -60 13 -60 13 37 157 50 75 95 137 99 137 3 0 16 -12 27 -26z m225 -211 c324 -246 461 -357 464 -373 4 -21 -60 -114 -80 -118 -9 -2 -76 34 -149 79 -124 76 -371 228 -472 290 -23 15 -41 31 -40 37 3 13 125 192 132 192 3 0 68 -48 145 -107z m562 -477 c27 -23 28 -24 11 -50 -20 -30 -28 -31 -67 -11 -35 18 -35 17 -15 55 19 36 35 38 71 6z m374 -372 c0 -314 -1 -335 -17 -332 -17 3 -18 28 -21 323 -1 176 0 325 3 332 2 7 11 13 20 13 13 0 15 -41 15 -336z m-815 -34 c0 -188 -1 -195 -20 -195 -19 0 -20 8 -23 185 -1 101 0 190 3 198 3 7 13 12 22 10 16 -3 18 -20 18 -198z m290 -315 c0 -383 0 -390 -20 -390 -20 0 -20 8 -23 370 -1 204 0 380 3 393 4 15 12 22 23 20 16 -3 17 -33 17 -393z m-2139 251 l101 -34 144 29 c225 45 250 45 439 9 150 -28 176 -30 283 -24 117 7 249 -5 462 -42 97 -17 125 -39 132 -108 5 -42 3 -48 -29 -80 -31 -31 -40 -34 -113 -40 -217 -17 -390 -42 -471 -68 -52 -17 -104 -86 -104 -136 0 -44 18 -75 101 -177 57 -70 107 -115 176 -157 15 -10 46 -31 68 -48 118 -88 187 -126 315 -173 161 -58 211 -72 310 -87 251 -40 355 -72 366 -116 26 -102 -130 -143 -434 -115 -120 12 -153 20 -374 91 -244 79 -277 91 -573 214 -235 98 -234 97 -306 146 -87 59 -295 201 -384 262 -174 121 -208 140 -287 168 -86 29 -187 68 -200 76 -7 5 20 86 59 174 11 25 26 61 33 80 7 19 26 67 42 105 16 39 33 80 38 92 11 25 13 25 206 -41z m1485 -744 c100 -7 139 -19 139 -43 0 -22 -216 11 -308 47 l-37 14 50 -6 c28 -3 98 -9 156 -12z m-41 -97 c93 -24 126 -27 288 -28 190 -2 207 -6 199 -47 -2 -13 -26 -15 -156 -13 l-153 2 -151 51 c-84 28 -159 55 -167 61 -18 13 -8 11 140 -26z m-15 -96 c181 -65 228 -72 455 -73 226 -1 280 -9 300 -46 12 -23 13 -67 2 -74 -5 -3 -35 6 -68 19 -32 13 -86 26 -119 30 -33 4 -85 11 -115 16 -30 5 -93 13 -140 18 -65 6 -120 22 -235 65 -82 31 -154 62 -160 68 -7 8 -4 9 10 3 11 -4 43 -16 70 -26z"/>
 <path d="M2065 2650 c-29 -33 -12 -60 71 -114 65 -43 79 -48 102 -40 18 6 28 18 30 35 3 27 -22 52 -116 112 -51 32 -63 33 -87 7z"/>
 </g>
<g id="layer103" fill="#d1d1d1" stroke="none">
 <path d="M1459 3395 c-737 -120 -1308 -672 -1429 -1383 -27 -156 -27 -398 0 -554 103 -605 547 -1116 1140 -1312 208 -69 287 -80 555 -80 212 0 252 2 345 22 530 115 950 430 1190 894 123 238 180 475 180 753 0 197 -22 338 -78 511 -189 576 -673 1002 -1287 1134 -130 28 -483 37 -616 15z m225 -170 c32 -8 78 -27 103 -42 48 -28 117 -108 140 -161 16 -38 20 -30 -120 -237 -105 -154 -99 -149 -169 -142 -114 10 -222 87 -275 196 -83 168 0 346 182 391 47 12 77 11 139 -5z m336 -351 l21 -33 -81 -120 c-45 -67 -86 -121 -92 -121 -26 0 -98 24 -98 32 0 6 14 31 32 57 17 25 49 73 71 106 22 33 53 77 70 98 33 42 41 40 77 -19z m237 -211 c368 -283 434 -335 444 -354 8 -16 2 -30 -32 -79 -46 -66 -64 -72 -114 -41 -32 19 -181 111 -457 280 -93 56 -168 109 -168 116 0 7 10 26 23 42 12 15 44 61 71 101 27 39 51 72 52 72 2 0 83 -62 181 -137z m523 -449 c46 -31 49 -47 15 -88 l-24 -30 -40 27 c-23 15 -41 31 -41 37 0 10 40 80 46 80 3 0 22 -12 44 -26z m384 -50 c14 -13 16 -57 16 -327 0 -172 -3 -322 -6 -334 -6 -23 -47 -33 -58 -15 -2 4 -6 156 -7 336 -2 309 -1 330 16 343 23 16 20 16 39 -3z m-806 -369 c2 -177 1 -201 -14 -212 -12 -9 -22 -9 -35 -2 -18 9 -19 25 -19 199 0 103 3 196 6 205 4 10 16 15 33 13 l26 -3 3 -200z m290 -317 c2 -384 2 -398 -17 -408 -15 -7 -23 -6 -35 6 -14 13 -16 63 -16 394 0 208 3 386 6 395 4 10 16 15 33 13 l26 -3 3 -397z m-2192 275 l145 -47 170 33 c182 36 246 40 325 23 204 -46 262 -53 371 -42 85 8 125 7 193 -5 47 -8 128 -19 180 -25 144 -16 158 -20 196 -55 30 -29 34 -38 34 -83 0 -39 -6 -57 -25 -81 -34 -40 -67 -48 -215 -56 -68 -3 -143 -10 -165 -15 -22 -5 -83 -17 -135 -26 -87 -16 -98 -20 -132 -56 -66 -68 -61 -113 25 -220 74 -92 105 -123 175 -172 41 -28 84 -58 96 -66 12 -8 51 -36 86 -62 109 -78 363 -167 580 -203 264 -45 333 -72 333 -134 0 -86 -84 -123 -278 -123 -181 1 -285 15 -416 56 -63 20 -163 51 -224 70 -103 32 -237 84 -480 186 -55 23 -122 51 -150 61 -67 26 -95 40 -125 62 -14 10 -43 30 -65 44 -37 25 -101 68 -345 235 -189 130 -218 147 -290 172 -144 52 -212 81 -217 92 -4 12 2 29 117 314 70 175 68 170 81 170 5 0 75 -21 155 -47z m1150 -698 c86 -25 285 -58 390 -64 104 -6 134 -18 134 -51 0 -43 -120 -27 -395 53 -66 19 -134 38 -152 41 -34 8 -67 36 -41 36 8 0 37 -7 64 -15z m149 -106 c55 -17 150 -42 210 -56 99 -23 124 -24 254 -20 188 7 239 -10 223 -76 -4 -17 -16 -18 -171 -15 l-166 5 -135 45 c-74 26 -165 60 -202 77 -36 17 -69 31 -73 31 -4 0 -22 7 -41 16 -34 16 -49 42 -16 29 9 -3 62 -20 117 -36z m92 -115 c32 -15 110 -42 173 -61 113 -35 118 -35 355 -42 270 -8 304 -15 323 -70 13 -36 1 -81 -21 -81 -8 0 -34 9 -58 19 -24 10 -75 24 -114 30 -130 21 -282 41 -311 41 -26 0 -298 96 -354 125 -31 16 -78 65 -62 65 6 0 37 -12 69 -26z"/>
 <path d="M2076 2644 c-28 -28 -21 -38 67 -99 70 -48 92 -52 111 -23 13 22 -5 43 -86 97 -69 46 -71 47 -92 25z"/>
 </g>
<g id="layer104" fill="#fefefe" stroke="none">
 <path d="M1459 3395 c-737 -120 -1308 -672 -1429 -1383 -27 -156 -27 -398 0 -554 103 -605 547 -1116 1140 -1312 208 -69 287 -80 555 -80 212 0 252 2 345 22 530 115 950 430 1190 894 123 238 180 475 180 753 0 197 -22 338 -78 511 -189 576 -673 1002 -1287 1134 -130 28 -483 37 -616 15z m196 -155 c3 -5 12 -7 21 -3 20 7 141 -53 154 -78 6 -10 15 -19 21 -19 22 0 99 -119 99 -153 0 -13 -188 -295 -222 -334 -17 -18 -29 -21 -87 -19 -89 4 -167 42 -231 114 -65 73 -88 136 -84 233 2 84 22 134 70 183 35 35 121 79 140 72 7 -3 16 -1 19 4 8 13 92 13 100 0z m335 -309 c0 -5 14 -23 30 -41 17 -18 30 -38 30 -45 0 -17 -161 -253 -177 -259 -7 -3 -29 2 -50 11 -21 9 -43 16 -50 15 -30 -6 -21 26 28 96 103 151 142 207 152 220 11 14 37 16 37 3z m201 -202 c57 -45 145 -112 194 -149 50 -37 105 -81 122 -97 18 -17 38 -33 45 -36 7 -2 45 -30 84 -60 88 -69 94 -95 36 -172 -61 -81 -38 -89 -405 137 -51 31 -121 74 -157 96 -140 85 -185 113 -193 121 -10 10 142 241 159 241 6 0 57 -37 115 -81z m599 -505 c50 -33 53 -67 11 -108 -33 -32 -49 -30 -100 13 l-35 28 30 47 c16 25 35 46 42 46 7 0 30 -12 52 -26z m384 -50 c14 -13 16 -59 16 -349 l0 -335 -24 -15 c-33 -22 -63 -6 -71 39 -6 32 0 589 6 634 7 40 46 54 73 26z m-818 -175 c8 -14 9 -403 1 -416 -10 -15 -53 -17 -62 -3 -8 13 -9 405 -1 418 7 12 55 13 62 1z m282 -108 c10 -6 13 -93 13 -417 0 -405 0 -409 -21 -418 -15 -7 -25 -5 -36 6 -13 12 -15 73 -15 412 0 400 2 426 35 426 6 0 17 -4 24 -9z m-2188 -122 c69 -23 130 -46 137 -51 7 -6 18 -5 30 1 16 9 98 26 303 63 59 10 156 4 198 -14 15 -6 33 -10 40 -9 7 1 50 -6 95 -15 92 -19 91 -19 239 -9 59 4 115 4 125 0 10 -4 34 -9 53 -10 198 -19 313 -39 353 -63 123 -71 52 -268 -89 -248 -26 3 -46 1 -50 -5 -4 -7 -36 -10 -83 -8 -42 2 -80 1 -86 -3 -11 -7 -190 -39 -203 -36 -4 1 -20 -4 -35 -10 -16 -7 -32 -12 -37 -12 -5 0 -22 -17 -39 -37 -38 -46 -41 -95 -8 -140 100 -138 158 -197 228 -233 19 -10 41 -26 49 -35 7 -9 21 -20 31 -25 14 -8 16 -6 12 10 -8 30 5 27 147 -38 25 -11 78 -29 118 -41 39 -12 104 -30 142 -41 59 -17 107 -21 295 -25 208 -4 228 -5 260 -25 40 -25 54 -73 35 -120 -15 -36 -23 -37 -91 -6 -30 14 -80 28 -112 31 -31 4 -59 11 -62 15 -2 4 -16 5 -30 3 -13 -3 -33 -2 -42 2 -10 4 -47 9 -83 11 -36 2 -75 6 -87 9 -13 3 -23 1 -23 -4 0 -11 25 -21 55 -21 13 0 27 -5 30 -10 4 -6 10 -8 16 -5 8 6 119 -10 149 -21 8 -4 31 -7 50 -8 60 -5 181 -46 206 -71 67 -67 -12 -173 -133 -180 -22 -2 -46 -6 -52 -10 -15 -9 -161 -3 -167 7 -3 4 -29 5 -59 2 -30 -4 -62 -3 -72 1 -10 4 -30 7 -45 6 -29 -3 -130 27 -393 113 -161 54 -205 70 -435 166 -69 29 -163 67 -209 86 -46 18 -92 41 -103 51 -11 9 -35 26 -53 38 -46 27 -275 184 -297 202 -9 9 -46 34 -81 57 -36 22 -93 61 -128 84 -35 24 -88 53 -119 64 -122 44 -236 91 -248 103 -11 10 -7 28 24 101 20 49 47 118 61 154 13 36 37 95 53 131 16 36 34 77 39 92 14 36 32 35 181 -14z m1136 -694 c27 -8 76 -20 109 -26 33 -6 64 -13 68 -16 5 -3 28 -6 52 -8 24 -1 49 -6 55 -10 7 -4 58 -8 114 -9 108 -2 148 -16 161 -57 17 -52 -41 -61 -187 -29 -50 12 -96 19 -102 17 -6 -2 15 -10 47 -17 32 -7 60 -17 63 -21 2 -5 11 -6 18 -3 8 3 17 1 20 -5 4 -6 13 -8 21 -4 8 3 23 2 33 -2 26 -12 110 -16 116 -6 3 5 52 9 109 10 92 2 106 -1 137 -21 35 -24 49 -60 32 -86 -9 -14 -100 -24 -107 -12 -2 4 -50 5 -107 2 -99 -4 -108 -3 -236 38 -124 39 -158 52 -267 101 -23 9 -52 20 -67 24 -14 4 -41 20 -59 35 -26 23 -31 31 -21 38 11 7 7 11 -13 16 -37 10 -75 36 -75 52 0 18 25 18 86 -1z"/>
 <path d="M2080 2620 c0 -13 24 -36 75 -70 41 -27 77 -50 80 -50 3 0 5 13 5 29 0 24 -10 35 -63 70 -70 45 -97 51 -97 21z"/>
 <path d="M1890 752 c8 -5 26 -13 40 -16 17 -5 20 -4 10 2 -8 5 -26 13 -40 16 -17 5 -20 4 -10 -2z"/>
 <path d="M1960 727 c0 -3 15 -10 32 -16 18 -6 28 -7 23 -2 -12 10 -55 25 -55 18z"/>
 <path d="M1705 980 c3 -5 16 -10 28 -9 21 0 21 1 2 9 -28 12 -37 12 -30 0z"/>
 </g>

</svg>