<?xml version="1.0" standalone="no"?>
<!DOCTYPE svg PUBLIC "-//W3C//DTD SVG 20010904//EN"
 "http://www.w3.org/TR/2001/REC-SVG-20010904/DTD/svg10.dtd">
<svg version="1.0" xmlns="http://www.w3.org/2000/svg"
 width="307.966074pt" height="289.878977pt" viewBox="0 0 307.966074 289.878977"
 preserveAspectRatio="xMidYMid meet">
<metadata>
Created by potrace 1.12, written by Peter Selinger 2001-2015
</metadata>
<g transform="translate(-10.033926,313.192392) scale(0.100000,-0.100000)"
fill="#000000" stroke="none">
<path d="M2300 3128 c-153 -8 -167 -11 -305 -54 -340 -105 -361 -113 -700
-254 -55 -23 -134 -56 -175 -72 -41 -17 -86 -40 -100 -50 -14 -11 -43 -31 -65
-45 -37 -25 -101 -68 -345 -235 -188 -129 -219 -147 -327 -187 -162 -60 -183
-70 -183 -84 1 -6 13 -43 29 -82 124 -307 155 -381 162 -389 5 -6 70 11 159
39 l151 49 167 -33 c173 -34 257 -39 333 -22 188 44 262 52 366 42 88 -9 122
-8 231 8 70 11 164 24 210 30 123 16 162 50 162 141 0 47 -36 94 -83 108 -18
6 -88 13 -157 17 -68 3 -143 10 -165 15 -22 5 -83 17 -135 26 -87 16 -98 20
-132 56 -51 53 -58 95 -24 150 68 111 144 188 273 276 26 18 82 57 123 86 41
30 104 65 140 79 194 77 297 107 447 132 266 44 336 72 336 134 0 100 -114
135 -393 119z"/>
<path d="M2628 2874 c-41 -22 -351 -75 -437 -74 -24 0 -299 -98 -351 -125 -30
-16 -78 -65 -63 -65 6 0 40 13 75 29 35 15 115 43 178 62 111 32 122 33 350
39 155 5 246 11 269 20 41 16 66 66 51 105 -11 28 -32 31 -72 9z"/>
<path d="M2030 2656 c-111 -35 -268 -94 -285 -106 -5 -4 -21 -11 -35 -15 -44
-13 -90 -37 -90 -47 0 -6 8 -7 18 -3 48 18 230 69 327 92 99 23 124 24 254 20
109 -4 152 -2 177 8 36 15 54 39 47 66 -5 18 -17 19 -157 18 -142 0 -157 -2
-256 -33z"/>
<path d="M1990 2544 c-123 -26 -435 -117 -450 -131 -12 -11 -12 -13 1 -13 8 0
38 7 65 15 86 25 285 58 390 64 105 6 134 18 134 52 0 13 -7 19 -24 19 -13 0
-30 2 -38 4 -7 2 -42 -2 -78 -10z"/>
<path d="M2596 2394 c-14 -13 -16 -64 -16 -397 0 -210 4 -388 9 -395 4 -8 19
-12 32 -10 l24 3 3 397 c2 384 2 398 -17 408 -15 7 -23 6 -35 -6z"/>
<path d="M3117 1983 c-4 -3 -7 -156 -7 -339 0 -319 1 -334 19 -344 15 -7 23
-6 35 6 14 13 16 58 16 330 0 198 -4 322 -10 335 -10 19 -40 26 -53 12z"/>
<path d="M2297 1884 c-9 -9 -9 -376 -1 -398 10 -25 53 -20 59 7 3 12 4 105 3
207 l-3 185 -25 3 c-14 2 -29 0 -33 -4z"/>
<path d="M2727 1345 c-20 -14 -37 -30 -37 -35 0 -10 40 -80 46 -80 15 0 84 55
84 67 0 15 -40 73 -50 73 -3 0 -22 -11 -43 -25z"/>
<path d="M2555 1281 c-32 -19 -181 -111 -457 -280 -93 -56 -168 -109 -168
-116 0 -7 10 -26 23 -42 12 -15 44 -61 71 -100 27 -40 50 -73 52 -73 3 0 369
281 517 396 122 96 126 105 75 175 -48 67 -62 72 -113 40z m-305 -326 c18 -22
7 -39 -52 -83 -89 -66 -118 -73 -132 -35 -9 23 3 37 74 87 70 48 91 54 110 31z"/>
<path d="M1808 858 c-21 -6 -38 -15 -38 -20 0 -6 13 -29 28 -52 16 -22 55 -79
86 -126 78 -114 86 -123 102 -109 8 6 23 26 34 45 l21 33 -81 120 c-86 127
-86 127 -152 109z"/>
<path d="M1571 815 c-96 -30 -184 -115 -222 -215 -64 -168 40 -338 224 -365
55 -8 151 15 214 51 48 29 117 108 140 162 13 31 12 36 -14 77 -54 85 -185
276 -200 290 -18 19 -83 18 -142 0z"/>
</g>
</svg>
